PathFileType	4	(X/Y/Z)	/Users/nbianco/Projects/AddBiomechanics/hamner/residuals/addbio/results/subject01/results/MarkerData/run200.trc
DataRate	CameraRate	NumFrames	NumMarkers	Units	OrigDataRate	OrigDataStartFrame	OrigNumFrames
100	100	10	42	m	100	203	233
Frame#	Time	C7			CLAV			LACR			LASI			LCAL			LFAradius			LFAsuperior			LFAulna			LLEL			LMEL			LMT5			LPSI			LTB1			LTB2			LTB3			LTH1			LTH2			LTH3			LTOE			LUA1			LUA2			LUA3			RACR			RASI			RCAL			RFAradius			RFAsuperior			RFAulna			RLEL			RMEL			RMT5			RPSI			RTB1			RTB2			RTB3			RTH1			RTH2			RTH3			RTOE			RUA1			RUA2			RUA3		
		X1	Y1	Z1	X2	Y2	Z2	X3	Y3	Z3	X4	Y4	Z4	X5	Y5	Z5	X6	Y6	Z6	X7	Y7	Z7	X8	Y8	Z8	X9	Y9	Z9	X10	Y10	Z10	X11	Y11	Z11	X12	Y12	Z12	X13	Y13	Z13	X14	Y14	Z14	X15	Y15	Z15	X16	Y16	Z16	X17	Y17	Z17	X18	Y18	Z18	X19	Y19	Z19	X20	Y20	Z20	X21	Y21	Z21	X22	Y22	Z22	X23	Y23	Z23	X24	Y24	Z24	X25	Y25	Z25	X26	Y26	Z26	X27	Y27	Z27	X28	Y28	Z28	X29	Y29	Z29	X30	Y30	Z30	X31	Y31	Z31	X32	Y32	Z32	X33	Y33	Z33	X34	Y34	Z34	X35	Y35	Z35	X36	Y36	Z36	X37	Y37	Z37	X38	Y38	Z38	X39	Y39	Z39	X40	Y40	Z40	X41	Y41	Z41	X42	Y42	Z42

204	2.23	0.986321	1.52463	-0.375246	1.10815	1.45394	-0.351624	1.01572	1.50051	-0.538402	1.04306	1.01382	-0.469855	0.895089	0.100387	-0.369103	1.06893	1.14284	-0.577962	0.885482	1.14546	-0.633341	1.05327	1.07921	-0.607361	0.821415	1.2016	-0.626096	0.825421	1.18186	-0.537304	1.08374	0.0378442	-0.457073	0.883622	1.08132	-0.417768	1.13801	0.409581	-0.415934	1.03334	0.319868	-0.465285	1.05543	0.206738	-0.397592	0.998984	0.902363	-0.549061	0.976921	0.738691	-0.496631	1.06592	0.624914	-0.494064	1.13254	0.0744933	-0.35966	0.903482	1.40805	-0.58311	0.926381	1.32566	-0.60139	0.846795	1.26519	-0.610487	1.0685	1.48682	-0.215376	1.05576	1.01688	-0.243108	0.541682	0.38362	-0.264184	1.10445	1.0632	-0.181514	0.982486	1.13076	-0.0643862	1.08638	1.02416	-0.128029	0.901158	1.20412	-0.047499	0.883577	1.18092	-0.13365	0.571919	0.178196	-0.218642	0.890668	1.0713	-0.305141	0.886261	0.381784	-0.283825	0.813705	0.429765	-0.208359	0.703183	0.326755	-0.281325	0.985635	0.892812	-0.20076	0.932243	0.747951	-0.21094	0.974547	0.595818	-0.220879	0.612926	0.157009	-0.315034	0.960436	1.39653	-0.143293	1.00154	1.3309	-0.122896	0.935705	1.25786	-0.076497
205	2.24	0.985879	1.52079	-0.376061	1.10737	1.4496	-0.351724	1.01567	1.49535	-0.539648	1.04291	1.00941	-0.470812	0.875355	0.100955	-0.369334	1.07851	1.12858	-0.576822	0.896438	1.13252	-0.636912	1.06304	1.06548	-0.607033	0.832214	1.18911	-0.63128	0.83413	1.16967	-0.542539	1.06328	0.0370635	-0.456106	0.883527	1.07704	-0.418626	1.12955	0.40284	-0.415117	1.02232	0.316169	-0.464578	1.03955	0.203092	-0.396921	0.99935	0.898362	-0.54831	0.974523	0.734801	-0.495469	1.06241	0.619837	-0.49336	1.11272	0.0735113	-0.359744	0.907196	1.3983	-0.583834	0.931918	1.3167	-0.603452	0.855026	1.25315	-0.614672	1.06706	1.48301	-0.215549	1.05381	1.01306	-0.243147	0.553685	0.384717	-0.264213	1.09331	1.04551	-0.174125	0.97269	1.12441	-0.0626409	1.07251	1.01102	-0.119273	0.893643	1.2019	-0.0502238	0.878166	1.17763	-0.13642	0.586908	0.180724	-0.214976	0.889317	1.06729	-0.305934	0.899701	0.379509	-0.283165	0.827824	0.428565	-0.207689	0.71623	0.326959	-0.280532	0.98489	0.889008	-0.200694	0.936113	0.743014	-0.212719	0.98418	0.592238	-0.220977	0.627161	0.158074	-0.311525	0.957338	1.3934	-0.144544	0.997442	1.32742	-0.123915	0.929324	1.25526	-0.0789529
206	2.25	0.985161	1.51784	-0.376797	1.10659	1.44628	-0.351752	1.01621	1.49142	-0.54065	1.04277	1.00648	-0.47224	0.855601	0.101761	-0.369409	1.08856	1.11625	-0.575035	0.908475	1.12243	-0.640488	1.07335	1.05398	-0.606864	0.843809	1.17877	-0.636345	0.843353	1.15934	-0.547631	1.04267	0.036268	-0.454388	0.883449	1.07424	-0.419957	1.11954	0.397118	-0.41442	1.00992	0.313493	-0.463849	1.02305	0.200343	-0.396254	0.999618	0.895392	-0.547716	0.971313	0.732275	-0.495096	1.05748	0.615577	-0.492753	1.09277	0.0730111	-0.359711	0.911059	1.39019	-0.582921	0.937547	1.30997	-0.605626	0.863717	1.24331	-0.618822	1.06564	1.4801	-0.215811	1.05171	1.01045	-0.243061	0.566511	0.384302	-0.264542	1.08113	1.03005	-0.167159	0.963008	1.12041	-0.0610074	1.05833	1.0007	-0.110462	0.886249	1.20141	-0.0526186	0.872627	1.17603	-0.138562	0.603745	0.181998	-0.211774	0.887866	1.06456	-0.307268	0.913984	0.377834	-0.282208	0.842176	0.427663	-0.207262	0.730457	0.326753	-0.279947	0.983199	0.886386	-0.200468	0.940313	0.739325	-0.214335	0.994306	0.589962	-0.220961	0.643825	0.158207	-0.308243	0.954073	1.39149	-0.145777	0.993157	1.32534	-0.124667	0.922832	1.25437	-0.0811324
207	2.26	0.98442	1.5161	-0.377672	1.10581	1.44425	-0.351656	1.01747	1.48868	-0.541398	1.04232	1.00515	-0.473537	0.836016	0.102823	-0.369277	1.09855	1.10716	-0.572881	0.92076	1.11555	-0.643774	1.08393	1.04572	-0.606596	0.855393	1.1711	-0.640994	0.852296	1.15146	-0.552309	1.02233	0.0359472	-0.453492	0.88305	1.07302	-0.421153	1.10835	0.392867	-0.413999	0.996427	0.312256	-0.463263	1.0063	0.198731	-0.395846	0.999386	0.893634	-0.547497	0.967572	0.73101	-0.495704	1.05147	0.612432	-0.49243	1.07295	0.0727075	-0.359689	0.914857	1.3841	-0.582044	0.943466	1.30535	-0.607671	0.872619	1.23597	-0.622692	1.06405	1.47832	-0.216032	1.0495	1.00901	-0.242888	0.580065	0.382307	-0.265066	1.06825	1.01762	-0.160471	0.953042	1.11863	-0.0592098	1.04397	0.993393	-0.101929	0.878707	1.20271	-0.0545217	0.866904	1.1762	-0.140091	0.622049	0.181914	-0.209128	0.886217	1.06303	-0.308543	0.929035	0.377264	-0.281167	0.856568	0.427195	-0.207064	0.745583	0.326172	-0.279636	0.981127	0.884732	-0.20024	0.944762	0.73698	-0.215504	1.00475	0.589001	-0.220628	0.662506	0.1573	-0.305294	0.95049	1.39078	-0.147087	0.988558	1.32469	-0.125099	0.916119	1.25506	-0.0829267
208	2.27	0.983822	1.5157	-0.378636	1.10502	1.4437	-0.351354	1.01935	1.48727	-0.541855	1.04182	1.00519	-0.474576	0.816505	0.103943	-0.369075	1.10791	1.10242	-0.5706	0.932278	1.11168	-0.646405	1.09436	1.04151	-0.605815	0.866123	1.16632	-0.645011	0.860279	1.14641	-0.556366	1.00226	0.0361553	-0.453848	0.88261	1.07319	-0.422086	1.09595	0.389737	-0.413904	0.981922	0.31185	-0.462877	0.989254	0.197862	-0.395712	0.998651	0.892948	-0.547401	0.963271	0.730632	-0.497057	1.04445	0.610325	-0.492439	1.05321	0.0723732	-0.359728	0.91878	1.38049	-0.582707	0.949708	1.30269	-0.609354	0.881291	1.23138	-0.626123	1.06218	1.47784	-0.21609	1.04726	1.00874	-0.242625	0.594204	0.378684	-0.265691	1.05491	1.00904	-0.154047	0.942375	1.11887	-0.0570052	1.02958	0.989276	-0.0939786	0.870717	1.20577	-0.0558674	0.86089	1.17823	-0.141092	0.641779	0.180455	-0.207071	0.88441	1.06274	-0.309445	0.944678	0.378255	-0.280643	0.871051	0.42741	-0.207226	0.761343	0.325247	-0.279631	0.979362	0.884216	-0.199968	0.949233	0.736077	-0.216351	1.01518	0.589603	-0.220168	0.682853	0.155408	-0.3029	0.946588	1.39143	-0.148446	0.983601	1.32554	-0.125193	0.90913	1.25734	-0.0842394
209	2.28	0.983388	1.51649	-0.379505	1.10424	1.44456	-0.350782	1.02166	1.48739	-0.542026	1.04166	1.00627	-0.475523	0.796901	0.10508	-0.369029	1.11622	1.10259	-0.568202	0.942391	1.11044	-0.648178	1.10424	1.0417	-0.604143	0.87548	1.16433	-0.64836	0.86701	1.14419	-0.559762	0.982213	0.0365303	-0.454655	0.882503	1.07439	-0.42293	1.08219	0.387263	-0.413785	0.966545	0.311619	-0.462647	0.971759	0.197359	-0.395699	0.997592	0.89309	-0.547128	0.958286	0.730988	-0.49867	1.03641	0.609093	-0.492611	1.03342	0.0720692	-0.359895	0.923203	1.37955	-0.585223	0.956005	1.30193	-0.610618	0.889204	1.22958	-0.629074	1.06001	1.4787	-0.215932	1.04513	1.00965	-0.242323	0.608773	0.373426	-0.266383	1.04139	1.00503	-0.147955	0.930957	1.12122	-0.0543875	1.01538	0.988515	-0.0867754	0.862091	1.21061	-0.0566716	0.854293	1.18222	-0.141564	0.662987	0.177671	-0.205642	0.882687	1.06371	-0.310082	0.960533	0.380719	-0.281074	0.88564	0.428409	-0.207846	0.777675	0.323934	-0.27989	0.978346	0.885095	-0.199619	0.953548	0.736634	-0.217091	1.02517	0.59199	-0.219997	0.704697	0.152738	-0.301217	0.942424	1.39357	-0.149781	0.97825	1.32798	-0.124939	0.901806	1.2613	-0.0849661
210	2.29	0.98309	1.5183	-0.38016	1.10352	1.44661	-0.349917	1.02426	1.48908	-0.541961	1.04186	1.00813	-0.476483	0.777226	0.10656	-0.369257	1.12335	1.10747	-0.565495	0.95109	1.11166	-0.649148	1.11324	1.0461	-0.601387	0.883418	1.16482	-0.651167	0.872634	1.14458	-0.562622	0.962053	0.0367915	-0.455135	0.88277	1.07638	-0.423798	1.06717	0.385367	-0.413258	0.950535	0.311535	-0.462476	0.953796	0.197234	-0.395664	0.996376	0.893904	-0.546642	0.952608	0.73223	-0.500009	1.02743	0.608683	-0.492637	1.01359	0.0719569	-0.360288	0.928176	1.381	-0.588691	0.961936	1.3031	-0.61157	0.896037	1.23034	-0.63158	1.05758	1.48079	-0.215559	1.04334	1.01174	-0.242105	0.623657	0.366555	-0.267181	1.02812	1.00574	-0.142269	0.919205	1.126	-0.0516313	1.00162	0.991133	-0.0803741	0.852848	1.21725	-0.0570071	0.846714	1.18818	-0.141451	0.685601	0.173661	-0.204899	0.881426	1.06583	-0.310757	0.976137	0.384111	-0.282257	0.900081	0.430048	-0.20882	0.79484	0.322166	-0.28035	0.978101	0.887432	-0.199229	0.957668	0.738596	-0.217746	1.03442	0.596118	-0.220336	0.728065	0.149542	-0.300268	0.938028	1.39724	-0.151068	0.97246	1.33197	-0.124327	0.894087	1.26701	-0.0850862
211	2.3	0.982929	1.52106	-0.3806	1.10287	1.44964	-0.348778	1.02699	1.49225	-0.541682	1.04226	1.01071	-0.477447	0.75773	0.10887	-0.369688	1.12933	1.11619	-0.562316	0.958763	1.11536	-0.649532	1.12129	1.05402	-0.597599	0.890248	1.16741	-0.653592	0.877515	1.14719	-0.565099	0.941902	0.0370616	-0.455346	0.883223	1.0791	-0.424677	1.05134	0.38434	-0.412382	0.9341	0.31206	-0.462239	0.935581	0.197776	-0.395541	0.995108	0.895343	-0.546092	0.946372	0.734541	-0.500679	1.01766	0.609145	-0.492247	0.993872	0.0720387	-0.360847	0.933217	1.38432	-0.591817	0.96721	1.30613	-0.612337	0.901904	1.23318	-0.633725	1.05499	1.48399	-0.214983	1.04202	1.01495	-0.242047	0.63883	0.358102	-0.268185	1.01559	1.01059	-0.13713	0.907691	1.13343	-0.0491191	0.988517	0.996844	-0.0748093	0.843202	1.22569	-0.0569861	0.837991	1.19597	-0.140819	0.709416	0.168566	-0.204839	0.880873	1.06896	-0.311636	0.991217	0.387978	-0.283462	0.913944	0.432086	-0.209912	0.813183	0.319974	-0.281035	0.978296	0.891084	-0.198785	0.961645	0.741874	-0.218168	1.04287	0.6017	-0.220989	0.753055	0.145952	-0.30005	0.933422	1.4023	-0.15233	0.966248	1.33745	-0.123388	0.886009	1.27443	-0.0847611
212	2.31	0.982935	1.52479	-0.380835	1.10231	1.45356	-0.34739	1.02964	1.49672	-0.541137	1.04278	1.01414	-0.478448	0.738723	0.112311	-0.370214	1.13423	1.1277	-0.558733	0.965766	1.12138	-0.649521	1.12844	1.0646	-0.593062	0.896342	1.17173	-0.655693	0.881875	1.15164	-0.56725	0.921919	0.0375911	-0.455689	0.883799	1.08264	-0.425577	1.03526	0.384532	-0.411592	0.917389	0.313619	-0.46185	0.917443	0.199253	-0.395343	0.993842	0.897389	-0.545575	0.939761	0.737938	-0.500532	1.00725	0.610538	-0.491364	0.974337	0.0720873	-0.361209	0.937655	1.38905	-0.593783	0.971817	1.31082	-0.612959	0.907246	1.23759	-0.635633	1.05233	1.48817	-0.214213	1.04114	1.01917	-0.242092	0.65436	0.348095	-0.269551	1.00418	1.0185	-0.132699	0.89674	1.14319	-0.0471119	0.976128	1.00504	-0.0701419	0.833457	1.23573	-0.0567844	0.828498	1.20528	-0.140013	0.734227	0.162586	-0.205332	0.880898	1.07309	-0.312631	1.00579	0.39225	-0.284027	0.926897	0.434357	-0.21097	0.832625	0.317517	-0.282093	0.978499	0.895883	-0.198168	0.965504	0.746366	-0.218213	1.05061	0.608426	-0.221542	0.779648	0.141984	-0.30054	0.928694	1.40859	-0.153567	0.959763	1.34426	-0.122217	0.877754	1.28331	-0.0842944
213	2.32	0.983112	1.52944	-0.38081	1.10184	1.45833	-0.345762	1.03206	1.50232	-0.54026	1.04358	1.01846	-0.479608	0.720385	0.116891	-0.370862	1.1381	1.14106	-0.555004	0.972188	1.12925	-0.64921	1.13478	1.07708	-0.58819	0.901906	1.17745	-0.657406	0.885661	1.1576	-0.569039	0.902029	0.0383336	-0.456079	0.884654	1.08706	-0.4266	1.01924	0.386075	-0.411176	0.900565	0.316301	-0.461325	0.899645	0.201743	-0.395146	0.992617	0.900003	-0.545038	0.932928	0.742318	-0.499702	0.996414	0.612886	-0.49012	0.954888	0.0717912	-0.360914	0.941162	1.39485	-0.594543	0.975939	1.31688	-0.613411	0.912447	1.24321	-0.637418	1.04971	1.49319	-0.213266	1.04056	1.02425	-0.242118	0.670395	0.33659	-0.271452	0.994006	1.02847	-0.128947	0.88631	1.15453	-0.0456595	0.964402	1.01497	-0.066428	0.823877	1.24698	-0.056656	0.819008	1.21569	-0.139553	0.759952	0.155984	-0.20616	0.881093	1.07833	-0.313589	1.01996	0.397014	-0.28384	0.938877	0.436755	-0.212049	0.852443	0.314928	-0.283682	0.978434	0.901716	-0.197264	0.969207	0.751945	-0.217855	1.05777	0.616116	-0.221697	0.80763	0.137696	-0.301508	0.924013	1.41593	-0.154741	0.953267	1.35216	-0.120976	0.86959	1.29328	-0.0839712
